<svg width="91" height="125" viewBox="0 0 91 125" fill="none" xmlns="http://www.w3.org/2000/svg">
<path d="M27.5249 114.609L26.3207 123.393C21.527 126.211 17.6358 123.526 17.6358 123.526L12.6406 104.383C16.6835 108.755 21.7758 112.254 27.5249 114.609Z" fill="#DB8896"/>
<path d="M56.8904 116.523L55.6006 122.944C50.6862 127.483 46.1499 123.089 46.1499 123.089L45.4219 117.996C47.3249 117.979 49.2554 117.853 51.2015 117.6C53.1421 117.347 55.0402 116.986 56.8904 116.523Z" fill="#DB8896"/>
<path d="M28.7916 62.2691C29.7778 62.2541 30.6048 64.0934 30.6372 66.3792C30.6697 68.6591 29.8952 70.5229 28.909 70.538C27.9229 70.553 27.0959 68.714 27.0635 66.434C27.031 64.1482 27.8053 62.2844 28.7916 62.2691Z" fill="#333523"/>
<path d="M15.382 77.1282C23.5506 77.003 30.2513 82.2149 30.3442 88.7708C30.4373 95.3268 23.8874 100.742 15.7188 100.867C13.2706 100.905 10.9549 100.464 8.91238 99.6506C5.78213 94.9691 3.70362 89.5716 3.00503 83.7006C2.97212 83.4296 2.94504 83.1525 2.91797 82.8817C5.49293 79.4999 10.0969 77.2092 15.382 77.1282ZM19.4125 88.8179C19.3691 85.754 18.8407 83.2767 18.2373 83.286C17.6281 83.2952 17.1701 85.7877 17.2138 88.8516C17.2572 91.9156 17.7856 94.3928 18.3948 94.3834C18.9982 94.3742 19.4562 91.8816 19.4125 88.8179ZM9.66185 89.088C9.61844 86.024 9.09 83.5468 8.4808 83.5563C7.87744 83.5655 7.41949 86.058 7.46314 89.1217C7.50655 92.1857 8.03499 94.6629 8.63835 94.6537C9.24755 94.6445 9.7055 92.152 9.66185 89.088Z" fill="#CB5D63"/>
<path d="M18.2334 83.2857C18.8367 83.2764 19.3652 85.7537 19.4086 88.8176C19.452 91.8816 18.9943 94.3739 18.3909 94.3831C17.7817 94.3925 17.2533 91.9151 17.2099 88.8514C17.1665 85.7874 17.6244 83.2949 18.2334 83.2857Z" fill="#983D52"/>
<path d="M57.2936 42.6906L63.9306 46.2627C63.4871 46.0887 52.4016 41.8367 41.9965 47.1059L36.1797 44.0822C36.1797 44.0822 46.6684 39.8011 57.2936 42.6906Z" fill="#A85A65"/>
<path d="M86.6621 92.7329L85.187 107.354C85.187 107.354 81.1824 111.397 77.3619 107.969L76.8281 105.92C80.9933 102.152 84.3474 97.6607 86.6565 92.7329H86.6621Z" fill="#DB8896"/>
<path d="M8.18561 63.0258C7.19946 63.0408 6.42501 64.9046 6.45745 67.1846C6.4899 69.4704 7.31663 71.3097 8.30302 71.2946C9.28917 71.2796 10.0636 69.4155 10.0312 67.1298C9.99873 64.8498 9.17176 63.0105 8.18561 63.0258ZM57.366 42.7079C57.3308 42.6722 57.109 42.5972 57.2902 42.6909C46.6649 39.8014 36.1762 44.0825 36.1762 44.0825L41.993 47.1062C52.3979 41.837 63.4837 46.0887 63.9271 46.2629L57.2902 42.6909C57.3368 42.7023 57.3602 42.7079 57.366 42.7079ZM77.4809 49.0168C84.2799 55.0113 88.8867 63.151 90.0001 72.5086C90.8436 79.6021 89.5781 86.5227 86.6546 92.7329C84.3455 97.6607 80.9914 102.152 76.8262 105.92C71.3953 110.859 64.5776 114.59 56.8934 116.523C55.0431 116.986 53.1448 117.347 51.2045 117.6C49.2583 117.853 47.3278 117.979 45.4248 117.996C39.0717 118.058 33.0023 116.854 27.5275 114.609C21.7784 112.254 16.6861 108.755 12.6433 104.383V104.377C11.2701 102.896 10.0235 101.323 8.90894 99.6504C10.9515 100.464 13.2672 100.905 15.7154 100.867C23.884 100.742 30.4339 95.3266 30.3408 88.7706C30.2476 82.2147 23.5469 77.0028 15.3786 77.128C10.0935 77.209 5.48951 79.4996 2.91454 82.8812C2.17954 75.2494 3.87898 67.8332 7.4422 61.3117C10.2135 56.232 14.1123 51.6959 18.8764 48.0154C25.213 43.1102 33.0684 39.7262 41.803 38.6027C55.5186 36.8362 68.4371 41.0297 77.4809 49.0168ZM30.6318 66.3792C30.5994 64.0935 29.7727 62.2542 28.7863 62.2692C27.7999 62.2843 27.0257 64.1483 27.0581 66.4341C27.0903 68.714 27.9173 70.5531 28.9037 70.538C29.8901 70.523 30.6643 68.6592 30.6318 66.3792Z" fill="#DB8896"/>
<path d="M8.48145 83.5557C9.09065 83.5465 9.61909 86.0237 9.6625 89.0874C9.70591 92.1511 9.2482 94.6437 8.639 94.6531C8.03564 94.6623 7.5072 92.1851 7.46379 89.1212C7.42037 86.0574 7.87832 83.5649 8.48145 83.5557Z" fill="#983D52"/>
<path d="M8.90869 99.6503C4.11774 97.751 0.8122 93.8203 0.747079 89.2245C0.714168 86.9026 1.50729 84.7306 2.91428 82.8813C2.94136 83.1524 2.96843 83.4295 3.00134 83.7003C3.69993 89.5713 5.77844 94.9685 8.90869 99.6503Z" fill="#CB5D63"/>
<path d="M8.18617 63.026C9.17232 63.0107 9.99929 64.85 10.0317 67.1299C10.0642 69.4157 9.28973 71.2798 8.30358 71.2948C7.31743 71.3098 6.49046 69.4706 6.45801 67.1848C6.42557 64.9048 7.20002 63.041 8.18617 63.026Z" fill="#333523"/>
<path d="M11.4262 43.2012C13.993 41.7079 17.1692 45.5321 18.8756 48.0154C14.1115 51.6959 10.2127 56.2318 7.44141 61.3117C7.50303 59.1089 8.01909 45.1778 11.4262 43.2012Z" fill="#DB8896"/>
<path d="M19.2897 49.0534C19.2897 49.0534 21.5302 37.9142 25.9388 37.5626C30.3475 37.211 32.7871 46.8632 32.7871 46.8632C32.7871 46.8632 18.7298 56.9141 19.2897 49.0534Z" fill="#DB8896"/>
<path d="M47.1979 42.8681C50.8025 42.8213 53.6882 39.7454 53.6431 35.998C53.598 32.2506 50.6394 29.2507 47.0347 29.2975C43.43 29.3443 40.5443 32.4202 40.5894 36.1676C40.6345 39.9151 43.5932 42.915 47.1979 42.8681Z" fill="#FFCE00"/>
<path d="M48.2774 38.8323C49.1177 38.4606 49.6377 37.8612 49.6814 37.1864C49.743 36.2325 48.8726 35.4354 48.0239 35.1758C47.917 35.1426 47.8066 35.12 47.6971 35.0948C47.5377 34.18 47.365 33.2681 47.1818 32.3586C47.6071 32.3385 48.0424 32.4809 48.3635 32.6248C48.5626 32.7141 48.7727 32.8602 48.7648 33.0024C48.758 33.1215 48.8521 33.229 48.9746 33.2411C49.0971 33.2538 49.2019 33.1676 49.2087 33.0482C49.2269 32.726 48.9865 32.436 48.5318 32.2322C48.0146 31.999 47.5256 31.8983 47.0931 31.9281C47.0028 31.4882 46.9166 31.0471 46.8205 30.6093C46.7946 30.4912 46.6762 30.4104 46.5562 30.4303C46.4363 30.4494 46.3602 30.561 46.3861 30.6792C46.4827 31.1199 46.5696 31.5642 46.6606 32.007C46.659 32.0075 46.6571 32.0075 46.6555 32.008C46.0157 32.2133 45.5454 32.8206 45.5115 33.4857C45.4779 34.1506 45.8826 34.8441 46.4956 35.1717C46.7591 35.3131 47.0387 35.3833 47.3137 35.4442C47.4906 36.4779 47.6493 37.5128 47.7947 38.5472C47.1349 38.7741 46.5504 38.8117 46.0593 38.6545C45.5633 38.4975 45.0417 38.0253 45.0382 37.4618C45.0375 37.3417 44.9376 37.2417 44.8148 37.2352C44.6918 37.2298 44.5931 37.3223 44.5938 37.4422C44.5984 38.1951 45.2207 38.8017 45.8588 39.0381C45.8861 39.0483 45.9134 39.0577 45.9408 39.0665C46.4998 39.2451 47.1442 39.2133 47.8533 38.9881C47.9252 39.5154 47.9999 40.0432 48.0631 40.5692C48.0736 40.6563 48.135 40.7279 48.2149 40.7575C48.2445 40.7684 48.2769 40.7738 48.3098 40.7716C48.4319 40.7636 48.5192 40.6602 48.5047 40.5408C48.4357 39.9721 48.3556 39.4021 48.2774 38.8323ZM47.91 35.5888C48.5963 35.8009 49.2829 36.4388 49.2379 37.1372C49.1975 37.76 48.6413 38.1551 48.216 38.3693C48.083 37.4317 47.9401 36.4939 47.7814 35.557C47.8239 35.5682 47.8678 35.5757 47.91 35.5888ZM46.693 34.7939C46.2334 34.5478 45.93 34.0278 45.955 33.5292C45.9793 33.0526 46.3039 32.6185 46.7509 32.4465C46.9206 33.2899 47.0805 34.1356 47.2294 34.9836C47.0389 34.937 46.8578 34.8822 46.693 34.7939Z" fill="#E0B500"/>
<path d="M30.0718 14.5879C32.9623 14.2162 35.5954 16.3506 35.953 19.3556C36.3106 22.3606 34.2575 25.0979 31.367 25.4697C28.4764 25.8414 25.8433 23.707 25.4858 20.702C25.1282 17.697 27.1812 14.9597 30.0718 14.5879Z" fill="#FFCE00"/>
<path d="M31.7007 22.8714C32.4003 22.5617 32.8335 22.0628 32.8699 21.5009C32.9212 20.7067 32.1965 20.0428 31.4897 19.8266C31.4006 19.7989 31.3089 19.78 31.2176 19.7591C31.085 18.9974 30.941 18.2382 30.7884 17.4809C31.1424 17.4641 31.5049 17.5825 31.7724 17.7026C31.9384 17.7771 32.1132 17.8987 32.1064 18.0171C32.1008 18.1164 32.1792 18.2059 32.281 18.2159C32.383 18.2263 32.4703 18.1547 32.4759 18.0552C32.4911 17.7868 32.2908 17.5454 31.9122 17.3756C31.4816 17.1812 31.0743 17.0975 30.7141 17.1225C30.6387 16.7563 30.5671 16.3889 30.487 16.0242C30.4655 15.9257 30.3668 15.8587 30.2671 15.875C30.1672 15.891 30.104 15.9839 30.1255 16.0825C30.206 16.4493 30.2781 16.8194 30.354 17.188C30.3526 17.1885 30.3509 17.1885 30.3495 17.189C29.8167 17.3598 29.4252 17.8657 29.397 18.4194C29.369 18.9732 29.706 19.5504 30.2163 19.8234C30.4357 19.9411 30.6686 19.9996 30.8976 20.0503C31.0449 20.9112 31.177 21.7729 31.2981 22.6341C30.7487 22.8231 30.262 22.8541 29.8531 22.7233C29.4399 22.5926 29.0058 22.1995 29.0028 21.7302C29.0021 21.6302 28.919 21.547 28.8167 21.5414C28.7145 21.5368 28.6321 21.6139 28.6328 21.7137C28.6366 22.3407 29.155 22.8459 29.6862 23.0427C29.7088 23.0512 29.7317 23.0592 29.7544 23.0662C30.2198 23.215 30.7564 23.1885 31.3467 23.0007C31.4064 23.4399 31.4687 23.8791 31.5215 24.3173C31.5304 24.3899 31.5812 24.4493 31.6478 24.4741C31.6725 24.4833 31.6993 24.4877 31.7269 24.4857C31.8284 24.4789 31.901 24.393 31.8891 24.2935C31.8326 23.8204 31.7659 23.3457 31.7007 22.8714ZM31.3947 20.1704C31.9661 20.3471 32.538 20.8782 32.5004 21.4596C32.4668 21.9784 32.0037 22.3072 31.6496 22.4858C31.5388 21.7052 31.42 20.9241 31.2876 20.144C31.3231 20.1534 31.3597 20.1595 31.3947 20.1704ZM30.3813 19.5085C29.9985 19.3037 29.7459 18.8708 29.7667 18.4553C29.787 18.0586 30.0573 17.6971 30.4296 17.5537C30.5708 18.2561 30.7041 18.9603 30.828 19.6664C30.6695 19.6278 30.5185 19.5822 30.3813 19.5085Z" fill="#E0B500"/>
<path d="M60.3286 6.83433C60.383 10.6648 57.44 13.8161 53.7554 13.8727C50.0708 13.9292 47.0395 10.8696 46.9851 7.03913C46.9307 3.20863 49.8738 0.0575516 53.5584 0.000771169C57.2432 -0.0557666 60.2742 3.00359 60.3286 6.83433Z" fill="#CBC6BD"/>
<path d="M54.7829 10.1744C55.6588 9.78693 56.2013 9.16186 56.2468 8.45817C56.3112 7.46354 55.4035 6.63221 54.5184 6.36141C54.4068 6.32696 54.2918 6.30318 54.1776 6.27697C54.0114 5.32311 53.8312 4.3724 53.6401 3.42387C54.0836 3.40276 54.5373 3.55126 54.8725 3.70146C55.0802 3.79464 55.2992 3.94703 55.2908 4.09505C55.2838 4.21929 55.3818 4.33139 55.5095 4.34401C55.6371 4.35711 55.7466 4.26733 55.7536 4.14285C55.7725 3.80678 55.5218 3.50443 55.0478 3.29187C54.5084 3.04849 53.9986 2.94367 53.5474 2.97497C53.4529 2.51636 53.3633 2.05629 53.2631 1.59962C53.2361 1.47635 53.1128 1.39215 52.9877 1.41278C52.8626 1.43292 52.7832 1.54915 52.8103 1.67241C52.9112 2.13199 53.0015 2.59522 53.0965 3.05698C53.0948 3.05747 53.0927 3.05747 53.0911 3.05795C52.4238 3.27197 51.9336 3.90529 51.8984 4.59903C51.8634 5.29229 52.2854 6.01539 52.9245 6.35704C53.1992 6.50458 53.4909 6.57762 53.7776 6.64119C53.9622 7.71905 54.1274 8.79812 54.2792 9.87695C53.5908 10.1135 52.9816 10.1526 52.4695 9.98881C51.9523 9.82526 51.4085 9.33268 51.4047 8.74522C51.404 8.62001 51.2997 8.51567 51.1718 8.50888C51.0436 8.5033 50.9405 8.59963 50.9414 8.7246C50.9463 9.50957 51.5952 10.1422 52.2606 10.3887C52.2891 10.3991 52.3176 10.4091 52.3461 10.4183C52.9289 10.6044 53.6009 10.5714 54.3401 10.3365C54.415 10.8864 54.493 11.4367 54.559 11.9853C54.57 12.0763 54.6339 12.1508 54.717 12.1817C54.7481 12.1931 54.7817 12.1986 54.8162 12.1962C54.9434 12.1877 55.0345 12.08 55.0193 11.9555C54.9479 11.3629 54.8643 10.7685 54.7829 10.1744ZM54.3996 6.79212C55.1152 7.01318 55.8313 7.67853 55.7842 8.40672C55.7422 9.05606 55.1621 9.46808 54.7187 9.6918C54.58 8.71416 54.4311 7.73628 54.2654 6.75912C54.31 6.77077 54.3555 6.77853 54.3996 6.79212ZM53.1306 5.96322C52.6511 5.70674 52.3349 5.16441 52.361 4.64465C52.3865 4.1477 52.7249 3.69516 53.191 3.5156C53.3679 4.39521 53.5346 5.27676 53.69 6.16123C53.4914 6.11245 53.3026 6.05543 53.1306 5.96322Z" fill="#8F8E87"/>
</svg>
