<svg width="32" height="32" viewBox="0 0 32 32" fill="none" xmlns="http://www.w3.org/2000/svg">
<rect width="32" height="32" rx="16" fill="#E8E8E8"/>
<path d="M8.01677 16.5942C7.90328 16.4145 7.84654 16.3246 7.81477 16.186C7.79091 16.0819 7.79091 15.9178 7.81477 15.8137C7.84654 15.6751 7.90328 15.5852 8.01677 15.4055C8.95461 13.9205 11.7462 10.1665 16.0003 10.1665C20.2545 10.1665 23.0461 13.9205 23.9839 15.4055C24.0974 15.5852 24.1541 15.6751 24.1859 15.8137C24.2098 15.9178 24.2098 16.0819 24.1859 16.186C24.1541 16.3246 24.0974 16.4145 23.9839 16.5942C23.0461 18.0791 20.2545 21.8332 16.0003 21.8332C11.7462 21.8332 8.95461 18.0791 8.01677 16.5942Z" stroke="black" stroke-width="1.5" stroke-linecap="round" stroke-linejoin="round"/>
<path d="M16.0003 18.4998C17.381 18.4998 18.5003 17.3805 18.5003 15.9998C18.5003 14.6191 17.381 13.4998 16.0003 13.4998C14.6196 13.4998 13.5003 14.6191 13.5003 15.9998C13.5003 17.3805 14.6196 18.4998 16.0003 18.4998Z" stroke="black" stroke-width="1.5" stroke-linecap="round" stroke-linejoin="round"/>
</svg>
