<svg width="25" height="24" viewBox="0 0 25 24" fill="none" xmlns="http://www.w3.org/2000/svg">
<path d="M17.625 9L12.1907 14.4343C11.9927 14.6323 11.8937 14.7313 11.7795 14.7684C11.6791 14.8011 11.5709 14.8011 11.4705 14.7684C11.3563 14.7313 11.2573 14.6323 11.0593 14.4343L9.19069 12.5657C8.99268 12.3677 8.89367 12.2687 8.77951 12.2316C8.67909 12.1989 8.57091 12.1989 8.47049 12.2316C8.35633 12.2687 8.25732 12.3677 8.05931 12.5657L3.625 17M17.625 9H13.625M17.625 9V13M8.425 21H16.825C18.5052 21 19.3452 21 19.987 20.673C20.5515 20.3854 21.0104 19.9265 21.298 19.362C21.625 18.7202 21.625 17.8802 21.625 16.2V7.8C21.625 6.11984 21.625 5.27976 21.298 4.63803C21.0104 4.07354 20.5515 3.6146 19.987 3.32698C19.3452 3 18.5052 3 16.825 3H8.425C6.74484 3 5.90476 3 5.26303 3.32698C4.69854 3.6146 4.2396 4.07354 3.95198 4.63803C3.625 5.27976 3.625 6.11984 3.625 7.8V16.2C3.625 17.8802 3.625 18.7202 3.95198 19.362C4.2396 19.9265 4.69854 20.3854 5.26303 20.673C5.90476 21 6.74484 21 8.425 21Z" stroke="#737373" stroke-width="2" stroke-linecap="round" stroke-linejoin="round"/>
</svg>
