<svg width="25" height="24" viewBox="0 0 25 24" fill="none" xmlns="http://www.w3.org/2000/svg">
<path d="M6.375 21H9.375M15.375 21H18.375M17.875 6.5V14.5M3.375 6.2L3.375 14.8C3.375 15.9201 3.375 16.4802 3.59299 16.908C3.78473 17.2843 4.09069 17.5903 4.46702 17.782C4.89484 18 5.45489 18 6.575 18L18.175 18C19.2951 18 19.8552 18 20.283 17.782C20.6593 17.5903 20.9653 17.2843 21.157 16.908C21.375 16.4802 21.375 15.9201 21.375 14.8V6.2C21.375 5.0799 21.375 4.51984 21.157 4.09202C20.9653 3.7157 20.6593 3.40974 20.283 3.21799C19.8552 3 19.2951 3 18.175 3L6.575 3C5.4549 3 4.89484 3 4.46702 3.21799C4.0907 3.40973 3.78473 3.71569 3.59299 4.09202C3.375 4.51984 3.375 5.07989 3.375 6.2ZM11.875 10.5C11.875 11.8807 10.7557 13 9.375 13C7.99429 13 6.875 11.8807 6.875 10.5C6.875 9.11929 7.99429 8 9.375 8C10.7557 8 11.875 9.11929 11.875 10.5Z" stroke="#737373" stroke-width="2" stroke-linecap="round" stroke-linejoin="round"/>
</svg>
