<svg width="25" height="24" viewBox="0 0 25 24" fill="none" xmlns="http://www.w3.org/2000/svg">
<path d="M9.875 11L12.875 14L22.875 4M16.875 3H8.675C6.99484 3 6.15476 3 5.51303 3.32698C4.94854 3.6146 4.4896 4.07354 4.20198 4.63803C3.875 5.27976 3.875 6.11984 3.875 7.8V16.2C3.875 17.8802 3.875 18.7202 4.20198 19.362C4.4896 19.9265 4.94854 20.3854 5.51303 20.673C6.15476 21 6.99484 21 8.675 21H17.075C18.7552 21 19.5952 21 20.237 20.673C20.8015 20.3854 21.2604 19.9265 21.548 19.362C21.875 18.7202 21.875 17.8802 21.875 16.2V12" stroke="#737373" stroke-width="2" stroke-linecap="round" stroke-linejoin="round"/>
</svg>
